# xmcd
#
# Track frame offsets:
#	150
#	11375
#	29023
#	29944
#	41748
#	46877
#	60421
#	72949
#	86856
#	87724
#	102628
#	115860
#	120220
#	134332
#	142508
#	155236
#	159234
#
# Disc length: 2288 seconds
#
# Revision: 0
# Processed by: cddbd v1.5.2PL0 Copyright (c) Steve Scherf et al.
# Submitted via: audiograbber 1.83.01
#
DISCID=e908ee11
DTITLE=Po' Ramblin' Boys - 'til The Rooster
DYEAR=2014
DGENRE=Bluegrass
TTITLE0=Katy Daley
TTITLE1=Tennessee 1949
TTITLE2=Intro To Josh
TTITLE3=Long Journey Home
TTITLE4=Intro To Matt And Jereme
TTITLE5=Sittin' On Top Of The World
TTITLE6=Tennessee
TTITLE7=The Days Of Gray and Black
TTITLE8=Few Old Memories Intro
TTITLE9=Few Old Memories
TTITLE10=I've Lived A Lot In My Time
TTITLE11=The Rooster Song Intro
TTITLE12=The Rooster Song
TTITLE13=Katy Hill
TTITLE14=Hard Times, Sometimes
TTITLE15=Rocky Top Intro
TTITLE16=Rocky Top
EXTD=
EXTT0=
EXTT1=
EXTT2=
EXTT3=
EXTT4=
EXTT5=
EXTT6=
EXTT7=
EXTT8=
EXTT9=
EXTT10=
EXTT11=
EXTT12=
EXTT13=
EXTT14=
EXTT15=
EXTT16=
PLAYORDER=
